<svg width="40" height="40" viewBox="0 0 40 40" fill="none" xmlns="http://www.w3.org/2000/svg">
<g filter="url(#filter0_d)">
<path d="M17.2759 5.01848L14.2414 6.1963L11.5517 3.56351L7.55172 7.23557L10.3103 10.2841L8.7931 13.2633H5V18.6674H8.7931L10.3103 21.8545L7.55172 24.7644L11.5517 28.5751L14.2414 26.0115L17.2759 27.3279V31H22.7931V27.3279L25.8966 26.0115L28.5862 28.5751L32.5172 24.7644L29.7586 21.8545L31.2069 18.6674H35V13.2633H31L29.7586 10.2841L32.5172 7.23557L28.5862 3.56351L25.8966 6.1963L22.7931 5.01848V1H17.2759V5.01848Z" stroke="#2298D0" stroke-width="2"/>
</g>
<defs>
<filter id="filter0_d" x="0" y="0" width="40" height="40" filterUnits="userSpaceOnUse" color-interpolation-filters="sRGB">
<feFlood flood-opacity="0" result="BackgroundImageFix"/>
<feColorMatrix in="SourceAlpha" type="matrix" values="0 0 0 0 0 0 0 0 0 0 0 0 0 0 0 0 0 0 127 0"/>
<feOffset dy="4"/>
<feGaussianBlur stdDeviation="2"/>
<feColorMatrix type="matrix" values="0 0 0 0 0 0 0 0 0 0 0 0 0 0 0 0 0 0 0.25 0"/>
<feBlend mode="normal" in2="BackgroundImageFix" result="effect1_dropShadow"/>
<feBlend mode="normal" in="SourceGraphic" in2="effect1_dropShadow" result="shape"/>
</filter>
</defs>
</svg>
