<svg width="144" height="85" viewBox="0 0 144 85" fill="none" xmlns="http://www.w3.org/2000/svg">
<path fill-rule="evenodd" clip-rule="evenodd" d="M37.1828 14.6762L37.2237 79.9932H43.4357L43.3948 10.2428C37.5097 7.33813 27.6194 2.40783 22.7561 0L22.9195 21.8233L37.1828 14.6762ZM47.1956 80.0315L55.778 79.7257L55.8598 33.0981L47.1956 28.7792V80.0315Z" fill="#2298D0"/>
<path fill-rule="evenodd" clip-rule="evenodd" d="M0.155615 80.0324H8.33096V45.0727L0.114746 49.1511L0.155615 80.0324ZM12.5755 80.0324H33.1489L32.9324 20.9834L12.5755 31.7933V80.0324ZM30.5211 70.4011V74.6052L27.7829 76.0958V71.8917L30.5211 70.4011ZM30.5211 64.3243V68.5283L27.7829 70.0189V65.8147L30.5211 64.3243ZM25.5352 60.7698V64.9739L22.7969 66.4645V62.2603L25.5352 60.7698ZM25.5352 54.884V59.0882L22.7969 60.5787V56.3746L25.5352 54.884ZM30.5211 58.3237V62.5279L27.7829 64.0184V59.8143L30.5211 58.3237ZM30.5211 52.2469V56.451L27.7829 57.9416V53.7375L30.5211 52.2469ZM25.5352 48.9218V53.1259L22.7969 54.6165V50.4124L25.5352 48.9218ZM30.5211 46.2846V50.4888L27.7829 51.9794V47.7752L30.5211 46.2846ZM25.5352 43.036V47.2401L22.7969 48.7307V44.5265L25.5352 43.036ZM30.5211 40.3606V44.5647L27.7829 46.0553V41.8512L30.5211 40.3606ZM25.5352 36.9973V41.2014L22.7969 42.692V38.4879L25.5352 36.9973ZM30.5211 34.322V38.5261L27.7829 40.0167V35.8125L30.5211 34.322ZM25.5352 30.9969V35.201L22.7969 36.6916V32.4874L25.5352 30.9969ZM30.5211 28.3215V32.5257L27.7421 34.0162V29.8121L30.5211 28.3215Z" fill="#55C8FF"/>
<path fill-rule="evenodd" clip-rule="evenodd" d="M0 80.0577H8.33906V68.6481V57.2384V34.4191L12.6418 31.7588V80.0577H143.041V84.0662H12.6418H8.33906H0V80.0577Z" fill="#FF9F48"/>
</svg>
